<svg xmlns="http://www.w3.org/2000/svg" viewBox="0 0 640 512"><path d="M414.8 85.4l-160 384c-5.3 12.8-19.9 19-32.7 13.7s-19-19.9-13.7-32.7l160-384c5.3-12.8 19.9-19 32.7-13.7s19 19.9 13.7 32.7zM130.6 151.3c9.4 9.4 9.4 24.6 0 33.9L65.9 250l64.7 64.7c9.4 9.4 9.4 24.6 0 33.9s-24.6 9.4-33.9 0l-80-80c-9.4-9.4-9.4-24.6 0-33.9l80-80c9.4-9.4 24.6-9.4 33.9 0zM509.4 151.3l80 80c9.4 9.4 9.4 24.6 0 33.9l-80 80c-9.4 9.4-24.6 9.4-33.9 0s-9.4-24.6 0-33.9L540.1 250l-64.7-64.7c-9.4-9.4-9.4-24.6 0-33.9s24.6-9.4 33.9 0z"/></svg>
